<?xml version="1.0" encoding="UTF-8"?>
<svg height="14px" version="1.1" viewBox="0 0 12 14" width="12px"
    xmlns="http://www.w3.org/2000/svg">
    <!-- Generator: Sketch 51.1 (57501) - http://www.bohemiancoding.com/sketch -->
    <title>编辑 (2)</title>
    <desc>Created with Sketch.</desc>
    <defs></defs>
    <g fill="none" fill-rule="evenodd" id="Page-1" stroke="none" stroke-width="1">
        <g fill="#000" fill-rule="nonzero" id="个人中心_已登录"
            transform="translate(-300.000000, -108.000000)">
            <g id="Group" transform="translate(300.000000, 108.000000)">
                <g id="编辑-(2)">
                    <path
                        d="M0.48311397,12.1112923 C3.60981342,11.7218359 3.77595383,11.5534063 3.88603344,11.4411007 L11.7413345,3.47756324 C12.0806489,3.1342827 12.086964,2.58136122 11.7553639,2.24519202 L9.78537004,0.2473832 C9.45097157,-0.0880576152 8.9062458,-0.0816746556 8.56904901,0.262315108 L0.713729041,8.2258334 C0.6050675,8.33528295 0.441025821,8.50229414 0.00428092123,11.6166417 C-0.0145177552,11.7508956 0.0292476239,11.8863874 0.12273656,11.9833647 C0.203821633,12.0671074 0.314743424,12.1142374 0.43049433,12.1141292 C0.448040512,12.1141483 0.465567787,12.1134391 0.48311397,12.1113115 L0.48311397,12.1112923 Z M9.17615071,0.865015997 L11.1327958,2.86069717 L10.1390164,3.86809302 L8.1774931,1.87954237 L9.17615071,0.865015997 Z M7.56957838,2.49706015 L9.5304588,4.48493993 L3.77769333,10.3164539 L1.82274987,8.33514877 L7.5696162,2.49704099 L7.56957838,2.49706015 Z M1.3056669,9.04612996 L3.07161075,10.8358505 C2.62482595,10.9290838 1.77750416,11.0594649 0.939522695,11.1717513 C1.06440689,10.3342994 1.20717761,9.48918019 1.3056669,9.04612996 Z M11.5695786,12.9733943 L0.792970475,12.9733943 C0.555302897,12.9733943 0.362521781,13.1688318 0.362521781,13.4097549 C0.362521781,13.6506781 0.555321804,13.8461538 0.792970475,13.8461538 L11.5695596,13.8461538 C11.8072272,13.8461538 11.9999894,13.6507164 11.9999894,13.4097549 C11.9999894,13.1687934 11.8072083,12.9733943 11.5695596,12.9733943 L11.5695786,12.9733943 Z"
                        id="Shape"></path>
                </g>
            </g>
        </g>
    </g>
</svg>